#!OML:ASF H:\MichaelJackson\Top Level 1\Subject 1\Session 1\male.ASF
:FULLY-SPECIFIED
:DEGREES
544
root 8.24533 13.9093 -3.52145 -180.674 47.0283 -182.988
lowerback 13.2908 1.12649 1.66675
upperback 7.10285 2.69098 7.17908
thorax -0.24255 1.64246 6.25636
lowerneck -2.1318 -15.9729 -6.03813
upperneck 8.97294 -21.6963 8.80201
head 4.66772 -10.4782 2.30831
rclavicle -6.36111e-015 -1.04958e-013
rhumerus 4.33794 18.4187 -91.0846
rradius 135.491
rwrist -46.1588
rhand -30.5911 -24.2535
rfingers 7.12502
rthumb -3.88825 -774.198
lclavicle -6.36111e-015 -1.04958e-013
lhumerus -45.467 -12.0851 103.988
lradius 56.6392
lwrist 31.3195
lhand -25.0047 -2.66228
lfingers 7.12502
lthumb 1.50703 27.3121
rfemur -49.1245 -8.33351 -3.2566
rtibia 64.9082
rfoot -11.0705 1.24465
rtoes -39.38
lfemur -33.9953 -5.67375 -16.1869
ltibia 89.6757
lfoot -39.0272 -10.3957
ltoes -6.25044
545
root 8.2831 13.903 -3.49513 -180.648 46.7585 -182.911
lowerback 13.2093 0.947444 1.72355
upperback 7.08019 2.44684 7.07191
thorax -0.192668 1.51966 6.14401
lowerneck -2.01192 -15.8516 -5.93689
upperneck 8.65585 -21.53 8.82835
head 4.53042 -10.41 2.34267
rclavicle 1.35174e-014 -7.31528e-014
rhumerus 4.75935 19.0061 -90.6183
rradius 135.142
rwrist -45.6418
rhand -30.1378 -23.7796
rfingers 7.12502
rthumb -3.45053 -773.731
lclavicle 1.35174e-014 -7.31528e-014
lhumerus -45.6705 -11.7212 103.63
lradius 56.1593
lwrist 31.5932
lhand -24.8892 -2.61399
lfingers 7.12502
lthumb 1.6186 27.3596
rfemur -49.1752 -8.3794 -3.08424
rtibia 65.2839
rfoot -11.0681 0.94276
rtoes -39.2691
lfemur -33.9582 -5.75614 -15.7497
ltibia 89.6009
lfoot -39.2334 -11.3853
ltoes -5.48296
546
root 8.31556 13.9081 -3.47129 -180.645 46.546 -182.873
lowerback 13.108 0.771983 1.7214
upperback 7.03753 2.19484 6.94639
thorax -0.155022 1.38972 6.04604
lowerneck -1.91115 -15.7397 -5.8503
upperneck 8.39964 -21.3761 8.82871
head 4.41484 -10.3463 2.36589
rclavicle -4.6118e-014 5.08889e-014
rhumerus 5.35144 19.4596 -90.0407
rradius 134.885
rwrist -45.186
rhand -29.6931 -23.3057
rfingers 7.12502
rthumb -3.02109 -773.264
lclavicle -4.6118e-014 5.08889e-014
lhumerus -45.8525 -11.4303 103.314
lradius 55.6823
lwrist 31.6924
lhand -24.7639 -2.60652
lfingers 7.12502
lthumb 1.73959 27.3661
rfemur -49.1652 -8.31351 -2.95021
rtibia 65.4919
rfoot -10.9614 0.61517
rtoes -39.1751
lfemur -33.8354 -5.83906 -15.3705
ltibia 89.349
lfoot -39.4311 -12.3898
ltoes -4.57232
547
root 8.3426 13.9245 -3.44966 -180.653 46.3973 -182.868
lowerback 12.986 0.604552 1.66225
upperback 6.9725 1.94136 6.80527
thorax -0.131767 1.25582 5.96331
lowerneck -1.83125 -15.6388 -5.78109
upperneck 8.20244 -21.237 8.80926
head 4.32172 -10.2881 2.37983
rclavicle 9.85972e-014 6.36111e-015
rhumerus 6.08594 19.7702 -89.381
rradius 134.72
rwrist -44.7914
rhand -29.263 -22.8451
rfingers 7.12502
rthumb -2.6057 -772.809
lclavicle 9.85972e-014 6.36111e-015
lhumerus -46.01 -11.1851 103.032
lradius 55.2192
lwrist 31.5909
lhand -24.6475 -2.6444
lfingers 7.12502
lthumb 1.85197 27.3273
rfemur -49.0997 -8.13052 -2.84987
rtibia 65.5231
rfoot -10.7566 0.259778
rtoes -39.0929
lfemur -33.6469 -5.88619 -15.0556
ltibia 88.9407
lfoot -39.5906 -13.3481
ltoes -3.60323
548
root 8.36405 13.9522 -3.43009 -180.656 46.3167 -182.885
lowerback 12.8427 0.446606 1.55431
upperback 6.88432 1.68999 6.65262
thorax -0.123009 1.12011 5.89501
lowerneck -1.77218 -15.5487 -5.72909
upperneck 8.05706 -21.1132 8.77559
head 4.24939 -10.2357 2.38639
rclavicle 4.92986e-014 1.08139e-013
rhumerus 6.93429 19.9376 -88.6655
rradius 134.64
rwrist -44.457
rhand -28.8531 -22.4092
rfingers 7.12502
rthumb -2.20983 -772.378
lclavicle 4.92986e-014 1.08139e-013
lhumerus -46.1392 -10.9571 102.773
lradius 54.78
lwrist 31.2808
lhand -24.5548 -2.72878
lfingers 7.12502
lthumb 1.94158 27.2421
rfemur -48.9835 -7.82933 -2.7749
rtibia 65.3692
rfoot -10.4552 -0.118539
rtoes -39.0186
lfemur -33.4122 -5.86132 -14.8088
ltibia 88.3997
lfoot -39.691 -14.1703
ltoes -2.7257
549
root 8.37962 13.9911 -3.41256 -180.64 46.3076 -182.907
lowerback 12.6784 0.297234 1.41067
upperback 6.77379 1.44211 6.49321
thorax -0.127654 0.983901 5.83861
lowerneck -1.73278 -15.469 -5.6919
upperneck 7.95409 -21.0038 8.73188
head 4.19484 -10.1888 2.38709
rclavicle 9.54166e-015 -7.95139e-014
rhumerus 7.87016 19.9695 -87.9164
rradius 134.631
rwrist -44.1814
rhand -28.4706 -22.0084
rfingers 7.12502
rthumb -1.84037 -771.98
lclavicle 9.54166e-015 -7.95139e-014
lhumerus -46.2366 -10.7201 102.526
lradius 54.3728
lwrist 30.779
lhand -24.4956 -2.85644
lfingers 7.12502
lthumb 1.99876 27.1139
rfemur -48.8206 -7.41443 -2.71376
rtibia 65.0228
rfoot -10.0549 -0.508004
rtoes -38.9469
lfemur -33.1471 -5.73487 -14.6303
ltibia 87.7475
lfoot -39.7265 -14.7584
ltoes -2.12214
550
root 8.38892 14.0412 -3.39718 -180.59 46.3746 -182.917
lowerback 12.4962 0.154621 1.24645
upperback 6.64308 1.19832 6.33183
thorax -0.144455 0.848275 5.79053
lowerneck -1.71078 -15.3984 -5.6641
upperneck 7.88407 -20.9072 8.67935
head 4.15422 -10.1471 2.38244
rclavicle 2.8625e-014 6.52014e-014
rhumerus 8.86878 19.8804 -87.1509
rradius 134.676
rwrist -43.9636
rhand -28.1256 -21.654
rfingers 7.12502
rthumb -1.50722 -771.628
lclavicle 2.8625e-014 6.52014e-014
lhumerus -46.2995 -10.4548 102.284
lradius 54.004
lwrist 30.1319
lhand -24.4769 -3.01834
lfingers 7.12502
lthumb 2.01676 26.9519
rfemur -48.6132 -6.89489 -2.65296
rtibia 64.4769
rfoot -9.5513 -0.890608
rtoes -38.8695
lfemur -32.8599 -5.49002 -14.5149
ltibia 86.9989
lfoot -39.694 -15.0611
ltoes -1.8851
551
root 8.39158 14.1025 -3.38425 -180.501 46.5255 -182.905
lowerback 12.3 0.0171414 1.07324
upperback 6.49569 0.958941 6.17205
thorax -0.171523 0.714065 5.74797
lowerneck -1.70354 -15.3354 -5.63874
upperneck 7.83911 -20.8209 8.61597
head 4.12355 -10.1096 2.37187
rclavicle 6.75868e-014 -6.52014e-014
rhumerus 9.90776 19.6902 -86.3815
rradius 134.754
rwrist -43.8043
rhand -27.83 -21.3586
rfingers 7.12502
rthumb -1.22173 -771.335
lclavicle 6.75868e-014 -6.52014e-014
lhumerus -46.3272 -10.1504 102.043
lradius 53.6787
lwrist 29.4104
lhand -24.5053 -3.20462
lfingers 7.12502
lthumb 1.98939 26.7659
rfemur -48.3632 -6.28522 -2.5821
rtibia 63.7253
rfoot -8.94122 -1.2412
rtoes -38.7767
lfemur -32.5487 -5.12127 -14.4588
ltibia 86.1587
lfoot -39.6031 -15.0464
ltoes -2.08709
552
root 8.38721 14.175 -3.37409 -180.37 46.7702 -182.865
lowerback 12.0948 -0.115971 0.899677
upperback 6.33466 0.724903 6.01647
thorax -0.208208 0.582264 5.70867
lowerneck -1.70807 -15.2778 -5.60825
upperneck 7.81438 -20.7418 8.53713
head 4.09937 -10.075 2.35398
rclavicle -8.50798e-014 7.31528e-014
rhumerus 10.9668 19.4228 -85.6176
rradius 134.847
rwrist -43.705
rhand -27.5953 -21.1335
rfingers 7.12502
rthumb -0.995058 -771.111
lclavicle -8.50798e-014 7.31528e-014
lhumerus -46.3218 -9.80747 101.807
lradius 53.3997
lwrist 28.7002
lhand -24.5866 -3.40652
lfingers 7.12502
lthumb 1.91086 26.5647
rfemur -48.0731 -5.60444 -2.49249
rtibia 62.7623
rfoot -8.22374 -1.53008
rtoes -38.6578
lfemur -32.2064 -4.63707 -14.4547
ltibia 85.2222
lfoot -39.4597 -14.7458
ltoes -2.67486
